# xmcd CD database file
# Copyright (C) 1993-1998 Ti Kan
# 
# Track frame offsets:
#     150
#     11682
#     24849
#     37546
#     53706
#     69136
#     88008
#     101640
#     115554
#     129001
#     142923
#     154945
#     168050
# 
# Disc length: 2459 seconds
# 
# Revision: 1
# Processed by: cddbd v1.4b41PL1 Copyright (c) Steve Scherf et al.
# Submitted via: DiscPlay 4.0.4
# 
DISCID=8509990d
DTITLE=Various Artist - Lucky Luke II Greatest Hits Mai 1998
DYEAR=1900
DGENRE=
TTITLE0=They Ain't made Enough Road
TTITLE1=My Kind Of Girl
TTITLE2=Hot Rod Lincoln
TTITLE3=Just to See you Smile
TTITLE4=The Swing
TTITLE5=How Do I Get There
TTITLE6=T-R-O-U-B-L-E
TTITLE7=Daddy's Money
TTITLE8=It's Start with a L
TTITLE9=Norman Jean Riley
TTITLE10=Little Bitty
TTITLE11=Race is on
TTITLE12=At The Beginning
EXTD=
EXTT0=
EXTT1=
EXTT2=
EXTT3=
EXTT4=
EXTT5=
EXTT6=
EXTT7=
EXTT8=
EXTT9=
EXTT10=
EXTT11=
EXTT12=
PLAYORDER=
